<svg width="90" height="80" viewBox="0 0 90 80" fill="none" xmlns="http://www.w3.org/2000/svg">
<path d="M60 16C60 20.2434 58.4197 24.3132 55.6066 27.3137C52.7936 30.3142 48.9782 32 45 32C41.0218 32 37.2064 30.3142 34.3934 27.3137C31.5804 24.3132 30 20.2434 30 16C30 11.7566 31.5804 7.68683 34.3934 4.68629C37.2064 1.68576 41.0218 0 45 0C48.9782 0 52.7936 1.68576 55.6066 4.68629C58.4197 7.68683 60 11.7566 60 16ZM85 26.6667C85 29.4957 83.9464 32.2087 82.0711 34.2092C80.1957 36.2095 77.6522 37.3333 75 37.3333C72.3478 37.3333 69.8043 36.2095 67.9289 34.2092C66.0536 32.2087 65 29.4957 65 26.6667C65 23.8377 66.0536 21.1246 67.9289 19.1242C69.8043 17.1238 72.3478 16 75 16C77.6522 16 80.1957 17.1238 82.0711 19.1242C83.9464 21.1246 85 23.8377 85 26.6667ZM65 64C65 58.3421 62.8929 52.9158 59.1421 48.9151C55.3914 44.9142 50.3043 42.6667 45 42.6667C39.6957 42.6667 34.6086 44.9142 30.8579 48.9151C27.1071 52.9158 25 58.3421 25 64V80H65V64ZM25 26.6667C25 29.4957 23.9464 32.2087 22.0711 34.2092C20.1957 36.2095 17.6522 37.3333 15 37.3333C12.3478 37.3333 9.8043 36.2095 7.9289 34.2092C6.0536 32.2087 5 29.4957 5 26.6667C5 23.8377 6.0536 21.1246 7.9289 19.1242C9.8043 17.1238 12.3478 16 15 16C17.6522 16 20.1957 17.1238 22.0711 19.1242C23.9464 21.1246 25 23.8377 25 26.6667ZM75 80V64C75.0072 58.5775 73.7165 53.2429 71.25 48.5013C73.4667 47.8962 75.7838 47.8391 78.0243 48.3345C80.2649 48.8299 82.3698 49.8645 84.1784 51.3596C85.9871 52.8545 87.4517 54.7705 88.4606 56.9612C89.4695 59.1518 89.9961 61.5593 90 64V80H75ZM18.75 48.5013C16.2837 53.2429 14.993 58.5775 15 64V80H1.31851e-06V64C-0.000958681 61.5575 0.522321 59.1473 1.52974 56.9539C2.53715 54.7605 4.00197 52.8423 5.8119 51.3462C7.6219 49.8501 9.7289 48.8159 11.9715 48.3228C14.2142 47.8297 16.5329 47.8907 18.75 48.5013Z" fill="#E2D8A6"/>
</svg>
