<svg width="100" height="100" viewBox="0 0 100 100" fill="none" xmlns="http://www.w3.org/2000/svg">
<g id="play">
<path id="Vector" fill-rule="evenodd" clip-rule="evenodd" d="M50 10C39.3913 10 29.2172 14.2143 21.7157 21.7157C14.2143 29.2172 10 39.3913 10 50C10 60.6087 14.2143 70.7828 21.7157 78.2843C29.2172 85.7857 39.3913 90 50 90C60.6087 90 70.7828 85.7857 78.2843 78.2843C85.7857 70.7828 90 60.6087 90 50C90 39.3913 85.7857 29.2172 78.2843 21.7157C70.7828 14.2143 60.6087 10 50 10ZM52.225 64.16C52.978 64.6624 53.8533 64.9509 54.7574 64.9949C55.6616 65.0388 56.5607 64.8364 57.3588 64.4094C58.157 63.9823 58.8242 63.3466 59.2894 62.57C59.7545 61.7935 60.0001 60.9052 60 60L60 40C60.0001 39.0948 59.7545 38.2065 59.2894 37.43C58.8242 36.6534 58.157 36.0177 57.3588 35.5906C56.5607 35.1636 55.6616 34.9612 54.7574 35.0051C53.8533 35.0491 52.978 35.3376 52.225 35.84L37.225 45.84C36.5402 46.2966 35.9787 46.9152 35.5904 47.6409C35.2021 48.3666 34.9989 49.1769 34.9989 50C34.9989 50.8231 35.2021 51.6334 35.5904 52.3591C35.9787 53.0848 36.5402 53.7034 37.225 54.16L52.225 64.16Z" fill="#F2EDD5"/>
</g>
</svg>
