<svg width="100" height="100" viewBox="0 0 100 100" fill="none" xmlns="http://www.w3.org/2000/svg">
<g id="briefcase">
<path id="Vector" fill-rule="evenodd" clip-rule="evenodd" d="M30 30V25C30 21.0218 31.5804 17.2064 34.3934 14.3934C37.2064 11.5804 41.0218 10 45 10H55C58.9782 10 62.7936 11.5804 65.6066 14.3934C68.4197 17.2064 70 21.0218 70 25V30H80C82.6522 30 85.1957 31.0536 87.0711 32.9289C88.9464 34.8043 90 37.3478 90 40V57.85C77.1981 62.5937 63.6525 65.015 50 65C36.3475 65.0152 22.8018 62.5939 10 57.85V40C10 37.3478 11.0536 34.8043 12.9289 32.9289C14.8043 31.0536 17.3478 30 20 30H30ZM40 25C40 23.6739 40.5268 22.4021 41.4645 21.4645C42.4021 20.5268 43.6739 20 45 20H55C56.3261 20 57.5979 20.5268 58.5355 21.4645C59.4732 22.4021 60 23.6739 60 25V30H40V25ZM45 50C45 48.6739 45.5268 47.4021 46.4645 46.4645C47.4021 45.5268 48.6739 45 50 45H50.05C51.3761 45 52.6479 45.5268 53.5855 46.4645C54.5232 47.4021 55.05 48.6739 55.05 50C55.05 51.3261 54.5232 52.5979 53.5855 53.5355C52.6479 54.4732 51.3761 55 50.05 55H50C48.6739 55 47.4021 54.4732 46.4645 53.5355C45.5268 52.5979 45 51.3261 45 50Z" fill="#F2EDD5"/>
<path id="Vector_2" d="M10 68.46V80C10 82.6521 11.0536 85.1957 12.9289 87.071C14.8043 88.9464 17.3478 90 20 90H80C82.6522 90 85.1957 88.9464 87.0711 87.071C88.9464 85.1957 90 82.6521 90 80V68.46C77.1118 72.8038 63.6005 75.0129 50 75C36.02 75 22.565 72.7 10 68.46Z" fill="#F2EDD5"/>
</g>
</svg>
