<svg width="80" height="80" viewBox="0 0 80 80" fill="none" xmlns="http://www.w3.org/2000/svg">
<path fill-rule="evenodd" clip-rule="evenodd" d="M40 0C29.3913 0 19.2172 4.2143 11.7157 11.7157C4.2143 19.2172 0 29.3913 0 40C0 50.6087 4.2143 60.7828 11.7157 68.2843C19.2172 75.7857 29.3913 80 40 80C50.6087 80 60.7828 75.7857 68.2843 68.2843C75.7857 60.7828 80 50.6087 80 40C80 29.3913 75.7857 19.2172 68.2843 11.7157C60.7828 4.2143 50.6087 0 40 0ZM42.225 54.16C42.978 54.6624 43.8533 54.9509 44.7574 54.9949C45.6616 55.0388 46.5607 54.8364 47.3588 54.4094C48.157 53.9823 48.8242 53.3466 49.2894 52.57C49.7545 51.7935 50.0001 50.9052 50 50V30C50.0001 29.0948 49.7545 28.2065 49.2894 27.43C48.8242 26.6534 48.157 26.0177 47.3588 25.5906C46.5607 25.1636 45.6616 24.9612 44.7574 25.0051C43.8533 25.0491 42.978 25.3376 42.225 25.84L27.225 35.84C26.5402 36.2966 25.9787 36.9152 25.5904 37.6409C25.2021 38.3666 24.9989 39.1769 24.9989 40C24.9989 40.8231 25.2021 41.6334 25.5904 42.3591C25.9787 43.0848 26.5402 43.7034 27.225 44.16L42.225 54.16Z" fill="#E2D8A6"/>
</svg>
