<svg width="80" height="80" viewBox="0 0 80 80" fill="none" xmlns="http://www.w3.org/2000/svg">
<path fill-rule="evenodd" clip-rule="evenodd" d="M20 20V15C20 11.0218 21.5804 7.2064 24.3934 4.3934C27.2064 1.5804 31.0218 0 35 0H45C48.9782 0 52.7936 1.5804 55.6066 4.3934C58.4197 7.2064 60 11.0218 60 15V20H70C72.6522 20 75.1957 21.0536 77.0711 22.9289C78.9464 24.8043 80 27.3478 80 30V47.85C67.1981 52.5937 53.6525 55.015 40 55C26.3475 55.0152 12.8018 52.5939 0 47.85V30C0 27.3478 1.0536 24.8043 2.9289 22.9289C4.8043 21.0536 7.3478 20 10 20H20ZM30 15C30 13.6739 30.5268 12.4021 31.4645 11.4645C32.4021 10.5268 33.6739 10 35 10H45C46.3261 10 47.5979 10.5268 48.5355 11.4645C49.4732 12.4021 50 13.6739 50 15V20H30V15ZM35 40C35 38.6739 35.5268 37.4021 36.4645 36.4645C37.4021 35.5268 38.6739 35 40 35H40.05C41.3761 35 42.6479 35.5268 43.5855 36.4645C44.5232 37.4021 45.05 38.6739 45.05 40C45.05 41.3261 44.5232 42.5979 43.5855 43.5355C42.6479 44.4732 41.3761 45 40.05 45H40C38.6739 45 37.4021 44.4732 36.4645 43.5355C35.5268 42.5979 35 41.3261 35 40Z" fill="#E2D8A6"/>
<path d="M0 58.46V70C0 72.6521 1.0536 75.1957 2.9289 77.071C4.8043 78.9464 7.3478 80 10 80H70C72.6522 80 75.1957 78.9464 77.0711 77.071C78.9464 75.1957 80 72.6521 80 70V58.46C67.1118 62.8038 53.6005 65.0129 40 65C26.02 65 12.565 62.7 0 58.46Z" fill="#E2D8A6"/>
</svg>
