<svg width="75" height="80" viewBox="0 0 75 80" fill="none" xmlns="http://www.w3.org/2000/svg">
<path fill-rule="evenodd" clip-rule="evenodd" d="M5.35714 0C6.77795 0 8.14055 0.526784 9.14521 1.46447C10.1499 2.40215 10.7143 3.67392 10.7143 5V15.505C15.1716 11.2614 20.713 8.14654 26.8165 6.45392C32.9199 4.7613 39.3846 4.54659 45.6015 5.83003C51.8184 7.11346 57.583 9.85279 62.3523 13.79C67.1215 17.7272 70.7385 22.7327 72.8625 28.335C73.1202 28.9588 73.2412 29.6245 73.2185 30.2927C73.1957 30.9609 73.0296 31.6181 72.7299 32.2253C72.4303 32.8325 72.0032 33.3775 71.474 33.828C70.9447 34.2786 70.3241 34.6254 69.6487 34.8481C68.9733 35.0709 68.2569 35.1649 67.5419 35.1247C66.8269 35.0845 66.1278 34.9109 65.4859 34.6141C64.8441 34.3173 64.2725 33.9034 63.805 33.3969C63.3375 32.8903 62.9837 32.3014 62.7643 31.665C61.1472 27.3991 58.3203 23.6226 54.5849 20.7379C50.8495 17.8532 46.3456 15.9684 41.553 15.2844C36.7605 14.6004 31.8588 15.1428 27.3705 16.8537C22.8821 18.5647 18.9752 21.3801 16.0661 25H32.1429C33.5637 25 34.9263 25.5268 35.9309 26.4645C36.9356 27.4021 37.5 28.6739 37.5 30C37.5 31.3261 36.9356 32.5979 35.9309 33.5355C34.9263 34.4732 33.5637 35 32.1429 35H5.35714C3.93634 35 2.57373 34.4732 1.56907 33.5355C0.564411 32.5979 0 31.3261 0 30V5C0 3.67392 0.564411 2.40215 1.56907 1.46447C2.57373 0.526784 3.93634 0 5.35714 0ZM5.4 45.285C6.06341 45.0663 6.76647 44.9717 7.46905 45.0066C8.17163 45.0416 8.85995 45.2053 9.49472 45.4885C10.1295 45.7718 10.6983 46.1689 11.1686 46.6573C11.6389 47.1457 12.0015 47.7158 12.2357 48.335C13.8528 52.6009 16.6797 56.3774 20.4151 59.2621C24.1505 62.1468 28.6544 64.0316 33.447 64.7156C38.2396 65.3996 43.1412 64.8572 47.6295 63.1463C52.1179 61.4353 56.0248 58.6199 58.9339 55H42.8571C41.4363 55 40.0737 54.4732 39.0691 53.5355C38.0644 52.5979 37.5 51.3261 37.5 50C37.5 48.6739 38.0644 47.4021 39.0691 46.4645C40.0737 45.5268 41.4363 45 42.8571 45H69.6429C71.0637 45 72.4263 45.5268 73.4309 46.4645C74.4356 47.4021 75 48.6739 75 50V75C75 76.3261 74.4356 77.5979 73.4309 78.5355C72.4263 79.4732 71.0637 80 69.6429 80C68.2221 80 66.8594 79.4732 65.8548 78.5355C64.8501 77.5979 64.2857 76.3261 64.2857 75V64.495C59.8284 68.7386 54.287 71.8535 48.1835 73.5461C42.0801 75.2387 35.6154 75.4534 29.3985 74.17C23.1816 72.8865 17.417 70.1472 12.6477 66.21C7.87847 62.2728 4.2615 57.2673 2.1375 51.665C1.90318 51.0458 1.80184 50.3896 1.83925 49.7339C1.87667 49.0781 2.05211 48.4357 2.35557 47.8433C2.65902 47.2508 3.08454 46.72 3.60783 46.281C4.13112 45.8421 4.74192 45.5036 5.40536 45.285H5.4Z" fill="#E2D8A6"/>
</svg>
