<svg width="80" height="80" viewBox="0 0 80 80" fill="none" xmlns="http://www.w3.org/2000/svg">
<path d="M40 0C17.9107 0 0 17.9107 0 40C0 62.0893 17.9107 80 40 80C62.0893 80 80 62.0893 80 40C80 17.9107 62.0893 0 40 0ZM54.7679 55.1964L48.875 55.1696L40 44.5893L31.1339 55.1607L25.2321 55.1875C24.8393 55.1875 24.5179 54.875 24.5179 54.4732C24.5179 54.3036 24.5804 54.1429 24.6875 54.0089L36.3036 40.1696L24.6875 26.3393C24.5796 26.2084 24.5197 26.0446 24.5179 25.875C24.5179 25.4821 24.8393 25.1607 25.2321 25.1607L31.1339 25.1875L40 35.7679L48.8661 25.1964L54.7589 25.1696C55.1518 25.1696 55.4732 25.4821 55.4732 25.8839C55.4732 26.0536 55.4107 26.2143 55.3036 26.3482L43.7054 40.1786L55.3125 54.0179C55.4196 54.1518 55.4821 54.3125 55.4821 54.4821C55.4821 54.875 55.1607 55.1964 54.7679 55.1964Z" fill="#E2D8A6"/>
</svg>
