<svg width="80" height="80" viewBox="0 0 80 80" fill="none" xmlns="http://www.w3.org/2000/svg">
<path d="M14.7696 8.6868L19.7588 3.69896C19.879 3.57822 19.9629 3.42619 20.0009 3.26016C20.0389 3.09413 20.0296 2.92075 19.9739 2.75977C19.9183 2.59878 19.8186 2.45663 19.6861 2.3495C19.5537 2.24237 19.3938 2.17455 19.2247 2.15375L1.01786 0.00636902C0.438242 -0.0618019 -0.0618195 0.426756 0.00637083 1.01757L2.15437 19.2192C2.24529 19.9691 3.16586 20.2872 3.70001 19.7532L8.66654 14.7881L23.8616 29.9675C24.2139 30.3197 24.7936 30.3197 25.1459 29.9675L29.9647 25.1615C30.317 24.8092 30.317 24.2298 29.9647 23.8776L14.7696 8.6868ZM54.8541 29.9675C55.2064 30.3197 55.7861 30.3197 56.1384 29.9675L71.3335 14.7881L76.3 19.7532C76.4208 19.8734 76.5728 19.9572 76.7389 19.9952C76.905 20.0333 77.0784 20.0239 77.2394 19.9683C77.4005 19.9126 77.5427 19.8129 77.6498 19.6805C77.757 19.5481 77.8248 19.3883 77.8456 19.2192L79.9936 1.02893C80.0618 0.44948 79.5731 -0.0504394 78.9821 0.0177315L60.7753 2.16512C60.0252 2.25601 59.707 3.17632 60.2412 3.71033L65.2304 8.69817L50.0353 23.8662C49.8661 24.037 49.7712 24.2677 49.7712 24.5081C49.7712 24.7486 49.8661 24.9793 50.0353 25.1501L54.8541 29.9675ZM77.8456 60.7808C77.7547 60.0309 76.8341 59.7128 76.3 60.2468L71.3335 65.2119L56.1384 50.0325C55.9675 49.8633 55.7367 49.7684 55.4963 49.7684C55.2558 49.7684 55.025 49.8633 54.8541 50.0325L50.0353 54.8385C49.8661 55.0094 49.7712 55.2401 49.7712 55.4805C49.7712 55.7209 49.8661 55.9516 50.0353 56.1224L65.2304 71.3132L60.2412 76.301C60.121 76.4218 60.0371 76.5738 59.9991 76.7398C59.9611 76.9059 59.9704 77.0792 60.026 77.2402C60.0817 77.4012 60.1814 77.5434 60.3139 77.6505C60.4463 77.7576 60.6062 77.8254 60.7753 77.8462L78.9821 79.9936C79.5618 80.0618 80.0618 79.5732 79.9936 78.9824L77.8456 60.7808ZM25.1459 50.0325C24.975 49.8633 24.7442 49.7684 24.5037 49.7684C24.2633 49.7684 24.0325 49.8633 23.8616 50.0325L8.66654 65.2119L3.70001 60.2468C3.57924 60.1266 3.42716 60.0428 3.26108 60.0048C3.095 59.9667 2.92158 59.9761 2.76055 60.0317C2.59952 60.0874 2.45733 60.187 2.35017 60.3195C2.24301 60.4519 2.17517 60.6117 2.15437 60.7808L0.00637083 78.9711C-0.0618195 79.5505 0.426877 80.0504 1.01786 79.9823L19.2247 77.8349C19.9748 77.744 20.293 76.8237 19.7588 76.2897L14.7696 71.3132L29.9647 56.1338C30.317 55.7816 30.317 55.2021 29.9647 54.8499L25.1459 50.0325Z" fill="#E2D8A6"/>
</svg>
