<svg width="80" height="80" viewBox="0 0 80 80" fill="none" xmlns="http://www.w3.org/2000/svg">
<path d="M76.8861 24.5001C74.8786 19.719 71.9582 15.3734 68.2876 11.7054C64.6279 8.03104 60.2807 5.10968 55.4928 3.10722C50.5879 1.0459 45.3179 -0.0107353 39.9958 8.2226e-05H39.8169C34.4037 0.0268679 29.1694 1.0983 24.2394 3.20544C19.4925 5.22842 15.1861 8.15497 11.5609 11.8215C7.92581 15.4813 5.03884 19.8117 3.06081 24.5715C1.00751 29.5211 -0.0329025 34.8306 0.000793024 40.1875C0.0276353 46.384 1.51291 52.5357 4.28661 58.0357V71.6072C4.28661 73.875 6.12978 75.7143 8.39348 75.7143H21.9757C27.513 78.5025 33.6235 79.9696 39.8258 80H40.0137C45.3643 80 50.5448 78.9643 55.4301 76.9375C60.1939 74.9589 64.5248 72.0716 68.1802 68.4375C71.8666 64.7857 74.7655 60.5179 76.7966 55.759C78.8993 50.8304 79.9729 45.5893 79.9998 40.1786C80.0177 34.7411 78.9619 29.4643 76.8861 24.5001ZM22.1367 44.2858C19.7746 44.2858 17.8509 42.3661 17.8509 40C17.8509 37.634 19.7746 35.7143 22.1367 35.7143C24.4989 35.7143 26.4226 37.634 26.4226 40C26.4226 42.3661 24.5078 44.2858 22.1367 44.2858ZM39.9958 44.2858C37.6337 44.2858 35.71 42.3661 35.71 40C35.71 37.634 37.6337 35.7143 39.9958 35.7143C42.3579 35.7143 44.2816 37.634 44.2816 40C44.2816 42.3661 42.3579 44.2858 39.9958 44.2858ZM57.8549 44.2858C55.4928 44.2858 53.5691 42.3661 53.5691 40C53.5691 37.634 55.4928 35.7143 57.8549 35.7143C60.217 35.7143 62.1407 37.634 62.1407 40C62.1407 42.3661 60.217 44.2858 57.8549 44.2858Z" fill="#E2D8A6"/>
</svg>
