<svg width="80" height="80" viewBox="0 0 80 80" fill="none" xmlns="http://www.w3.org/2000/svg">
<g clip-path="url(#clip0_793_224)">
<path fill-rule="evenodd" clip-rule="evenodd" d="M40 80C50.6087 80 60.7828 75.7857 68.2843 68.2843C75.7857 60.7828 80 50.6087 80 40C80 29.3913 75.7857 19.2172 68.2843 11.7157C60.7828 4.21427 50.6087 0 40 0C29.3913 0 19.2172 4.21427 11.7157 11.7157C4.21427 19.2172 0 29.3913 0 40C0 50.6087 4.21427 60.7828 11.7157 68.2843C19.2172 75.7857 29.3913 80 40 80ZM37.775 25.84C37.022 25.3376 36.1467 25.0491 35.2426 25.0051C34.3384 24.9612 33.4393 25.1636 32.6412 25.5906C31.843 26.0177 31.1758 26.6534 30.7106 27.43C30.2455 28.2065 29.9999 29.0948 30 30V50C29.9999 50.9052 30.2455 51.7935 30.7106 52.57C31.1758 53.3466 31.843 53.9823 32.6412 54.4094C33.4393 54.8364 34.3384 55.0388 35.2426 54.9949C36.1467 54.9509 37.022 54.6624 37.775 54.16L52.775 44.16C53.4598 43.7034 54.0213 43.0848 54.4096 42.3591C54.7979 41.6334 55.0011 40.8231 55.0011 40C55.0011 39.1769 54.7979 38.3666 54.4096 37.6409C54.0213 36.9152 53.4598 36.2966 52.775 35.84L37.775 25.84Z" fill="#E2D8A6"/>
</g>
<defs>
<clipPath id="clip0_793_224">
<rect width="80" height="80" fill="white"/>
</clipPath>
</defs>
</svg>
